<svg width="23" height="18" viewBox="0 0 23 18" fill="none" xmlns="http://www.w3.org/2000/svg">
<path d="M22.5 10.1276C22.5 10.4259 22.3834 10.7119 22.1759 10.9228C21.9684 11.1337 21.6869 11.2522 21.3935 11.2522H20.6558V12.0019C20.6558 12.3001 20.5392 12.5862 20.3317 12.7971C20.1241 13.008 19.8427 13.1264 19.5492 13.1264C19.2557 13.1264 18.9743 13.008 18.7668 12.7971C18.5592 12.5862 18.4427 12.3001 18.4427 12.0019V11.2522H17.705C17.4115 11.2522 17.13 11.1337 16.9225 10.9228C16.715 10.7119 16.5984 10.4259 16.5984 10.1276C16.5984 9.8294 16.715 9.54337 16.9225 9.33247C17.13 9.12158 17.4115 9.0031 17.705 9.0031H18.4427V8.2534C18.4427 7.95515 18.5592 7.66912 18.7668 7.45823C18.9743 7.24733 19.2557 7.12885 19.5492 7.12885C19.8427 7.12885 20.1241 7.24733 20.3317 7.45823C20.5392 7.66912 20.6558 7.95515 20.6558 8.2534V9.0031H21.3935C21.6869 9.0031 21.9684 9.12158 22.1759 9.33247C22.3834 9.54337 22.5 9.8294 22.5 10.1276ZM17.4458 15.4018C17.6346 15.6302 17.7264 15.9255 17.701 16.2226C17.6756 16.5198 17.535 16.7946 17.3103 16.9865C17.0855 17.1783 16.795 17.2716 16.5026 17.2458C16.2101 17.2199 15.9398 17.0771 15.751 16.8487C14.4886 15.3212 12.2644 13.5013 8.85259 13.5013C6.18858 13.5013 3.7385 14.6896 1.95419 16.8487C1.76539 17.0771 1.49504 17.2199 1.20261 17.2458C0.910182 17.2716 0.619633 17.1783 0.394881 16.9865C0.170128 16.7946 0.0295822 16.5198 0.00416125 16.2226C-0.0212597 15.9255 0.0705268 15.6302 0.259329 15.4018C1.46152 13.9262 3.00383 12.7754 4.74914 12.0516C3.66383 11.1844 2.87151 9.99501 2.48243 8.64886C2.09335 7.3027 2.12687 5.86677 2.57832 4.54089C3.02977 3.215 3.8767 2.06511 5.00125 1.25124C6.1258 0.437368 7.47202 0 8.85259 0C10.2332 0 11.5794 0.437368 12.7039 1.25124C13.8285 2.06511 14.6754 3.215 15.1269 4.54089C15.5783 5.86677 15.6118 7.3027 15.2227 8.64886C14.8337 9.99501 14.0413 11.1844 12.956 12.0516C14.7015 12.7751 16.2439 13.926 17.4458 15.4018ZM8.85259 11.2522C9.72801 11.2522 10.5838 10.9884 11.3116 10.4941C12.0395 9.99985 12.6068 9.29732 12.9419 8.47539C13.2769 7.65345 13.3645 6.74901 13.1937 5.87645C13.0229 5.00389 12.6014 4.20239 11.9824 3.5733C11.3634 2.94422 10.5747 2.51581 9.71609 2.34224C8.8575 2.16868 7.96754 2.25776 7.15876 2.59822C6.34998 2.93867 5.6587 3.51522 5.17235 4.25494C4.68599 4.99467 4.4264 5.86435 4.4264 6.754C4.42762 7.94662 4.89434 9.09003 5.72415 9.93334C6.55396 10.7766 7.67906 11.251 8.85259 11.2522Z" fill="white"/>
</svg>
