<svg width="23" height="18" viewBox="0 0 23 18" fill="none" xmlns="http://www.w3.org/2000/svg">
<path d="M21.75 6.75H20.7375L18.1331 0.890625C18.0153 0.625525 17.8231 0.400293 17.5798 0.242217C17.3365 0.0841403 17.0526 3.47268e-06 16.7625 0H5.7375C5.44738 3.47268e-06 5.16349 0.0841403 4.92022 0.242217C4.67695 0.400293 4.48474 0.625525 4.36688 0.890625L1.7625 6.75H0.75C0.551088 6.75 0.360322 6.82902 0.21967 6.96967C0.0790176 7.11032 0 7.30109 0 7.5C0 7.69891 0.0790176 7.88968 0.21967 8.03033C0.360322 8.17098 0.551088 8.25 0.75 8.25H1.5V15.75C1.5 16.1478 1.65804 16.5294 1.93934 16.8107C2.22064 17.092 2.60218 17.25 3 17.25H5.25C5.64782 17.25 6.02936 17.092 6.31066 16.8107C6.59196 16.5294 6.75 16.1478 6.75 15.75V14.25H15.6519V12.75C15.6519 12.75 15.8876 12.75 16.2855 12.75H19.5C19.4697 12.5 19.4697 11 19.4697 11C19.5 10.75 20.5504 10.75 20.5 11.0303L21 8.25H21.75C21.9489 8.25 22.1397 8.17098 22.2803 8.03033C22.421 7.88968 22.5 7.69891 22.5 7.5C22.5 7.30109 22.421 7.11032 22.2803 6.96967C22.1397 6.82902 21.9489 6.75 21.75 6.75ZM5.7375 1.5H16.7625L19.0959 6.75H3.40406L5.7375 1.5ZM5.25 15.75H3V14.25H5.25V15.75ZM19.5 12.75H3V8.25H19.5V12.75ZM4.5 10.5C4.5 10.3011 4.57902 10.1103 4.71967 9.96967C4.86032 9.82902 5.05109 9.75 5.25 9.75H6.75C6.94891 9.75 7.13968 9.82902 7.28033 9.96967C7.42098 10.1103 7.5 10.3011 7.5 10.5C7.5 10.6989 7.42098 10.8897 7.28033 11.0303C7.13968 11.171 6.94891 11.25 6.75 11.25H5.25C5.05109 11.25 4.86032 11.171 4.71967 11.0303C4.57902 10.8897 4.5 10.6989 4.5 10.5ZM15 10.5C15 10.3011 15.079 10.1103 15.2197 9.96967C15.3603 9.82902 15.5511 9.75 15.75 9.75H17.25C17.4489 9.75 17.6397 9.82902 17.7803 9.96967C17.921 10.1103 18 10.3011 18 10.5C18 10.6989 17.921 10.8897 17.7803 11.0303C17.6397 11.171 17.4489 11.25 17.25 11.25H15.75C15.5511 11.25 15.3603 11.171 15.2197 11.0303C15.079 10.8897 15 10.6989 15 10.5Z" fill="white"/>
<path d="M21.7891 14C21.7891 14.0808 21.757 14.1583 21.6998 14.2154C21.6427 14.2726 21.5652 14.3047 21.4844 14.3047H19.5547V16.2344C19.5547 16.3152 19.5226 16.3927 19.4654 16.4498C19.4083 16.507 19.3308 16.5391 19.25 16.5391C19.1692 16.5391 19.0917 16.507 19.0346 16.4498C18.9774 16.3927 18.9453 16.3152 18.9453 16.2344V14.3047H17.0156C16.9348 14.3047 16.8573 14.2726 16.8002 14.2154C16.743 14.1583 16.7109 14.0808 16.7109 14C16.7109 13.9192 16.743 13.8417 16.8002 13.7846C16.8573 13.7274 16.9348 13.6953 17.0156 13.6953H18.9453V11.7656C18.9453 11.6848 18.9774 11.6073 19.0346 11.5502C19.0917 11.493 19.1692 11.4609 19.25 11.4609C19.3308 11.4609 19.4083 11.493 19.4654 11.5502C19.5226 11.6073 19.5547 11.6848 19.5547 11.7656V13.6953H21.4844C21.5652 13.6953 21.6427 13.7274 21.6998 13.7846C21.757 13.8417 21.7891 13.9192 21.7891 14Z" fill="white"/>
</svg>
