<svg width="24" height="18" viewBox="0 0 24 18" fill="none" xmlns="http://www.w3.org/2000/svg">
<path d="M22.125 6.75H21.3563L18.8512 1.11375C18.704 0.782215 18.4637 0.500527 18.1595 0.30284C17.8553 0.105152 17.5003 -4.6029e-05 17.1375 1.51083e-08H6.1125C5.74972 -4.6029e-05 5.39472 0.105152 5.09053 0.30284C4.78634 0.500527 4.54604 0.782215 4.39875 1.11375L1.89375 6.75H1.125C0.826631 6.75 0.540483 6.86853 0.329505 7.0795C0.118526 7.29048 0 7.57663 0 7.875C0 8.17337 0.118526 8.45952 0.329505 8.6705C0.540483 8.88147 0.826631 9 1.125 9H1.5V16.125C1.5 16.6223 1.69754 17.0992 2.04917 17.4508C2.40081 17.8025 2.87772 18 3.375 18H6C6.49728 18 6.97419 17.8025 7.32583 17.4508C7.67746 17.0992 7.875 16.6223 7.875 16.125V14.25H15.375V16.125C15.375 16.6223 15.5725 17.0992 15.9242 17.4508C16.2758 17.8025 16.7527 18 17.25 18H19.875C20.3723 18 20.8492 17.8025 21.2008 17.4508C21.5525 17.0992 21.75 16.6223 21.75 16.125V9H22.125C22.4234 9 22.7095 8.88147 22.9205 8.6705C23.1315 8.45952 23.25 8.17337 23.25 7.875C23.25 7.57663 23.1315 7.29048 22.9205 7.0795C22.7095 6.86853 22.4234 6.75 22.125 6.75ZM6.35625 2.25H16.8937L18.8934 6.75H4.35656L6.35625 2.25ZM5.625 15.75H3.75V14.25H5.625V15.75ZM17.625 15.75V14.25H19.5V15.75H17.625ZM19.5 12H3.75V9H19.5V12Z" fill="white"/>
</svg>
