<svg width="24" height="24" viewBox="0 0 24 24" fill="none" xmlns="http://www.w3.org/2000/svg">
<path d="M11.9525 11.2041L19.4525 3.70407C19.5572 3.59943 19.6814 3.51642 19.8181 3.45978C19.9549 3.40315 20.1014 3.374 20.2494 3.374C20.3974 3.374 20.5439 3.40315 20.6807 3.45978C20.8174 3.51642 20.9416 3.59943 21.0463 3.70407C21.1509 3.80872 21.2339 3.93295 21.2906 4.06968C21.3472 4.20641 21.3764 4.35295 21.3764 4.50095C21.3764 4.64894 21.3472 4.79548 21.2906 4.93221C21.2339 5.06894 21.1509 5.19318 21.0463 5.29782L14.3422 12L21.0444 18.7041C21.2558 18.9154 21.3745 19.2021 21.3745 19.5009C21.3745 19.7998 21.2558 20.0865 21.0444 20.2978C20.8331 20.5092 20.5464 20.6279 20.2475 20.6279C19.9486 20.6279 19.662 20.5092 19.4507 20.2978L11.9507 12.7978C11.8459 12.6932 11.7628 12.5689 11.7062 12.4321C11.6496 12.2953 11.6205 12.1486 11.6207 12.0006C11.6209 11.8525 11.6503 11.7059 11.7072 11.5692C11.7642 11.4326 11.8475 11.3085 11.9525 11.2041ZM4.45253 12.7978L11.9525 20.2978C12.0572 20.4025 12.1814 20.4855 12.3181 20.5421C12.4549 20.5987 12.6014 20.6279 12.7494 20.6279C12.8974 20.6279 13.0439 20.5987 13.1807 20.5421C13.3174 20.4855 13.4416 20.4025 13.5463 20.2978C13.6509 20.1932 13.7339 20.0689 13.7906 19.9322C13.8472 19.7955 13.8764 19.6489 13.8764 19.5009C13.8764 19.353 13.8472 19.2064 13.7906 19.0697C13.7339 18.933 13.6509 18.8087 13.5463 18.7041L6.84222 12L13.5472 5.29595C13.7586 5.0846 13.8773 4.79796 13.8773 4.49907C13.8773 4.20019 13.7586 3.91354 13.5472 3.7022C13.3359 3.49085 13.0492 3.37212 12.7503 3.37212C12.4515 3.37212 12.1648 3.49085 11.9535 3.7022L4.45347 11.2022C4.34853 11.3067 4.26524 11.4308 4.20838 11.5675C4.15152 11.7042 4.1222 11.8508 4.12211 11.9989C4.12202 12.1469 4.15117 12.2936 4.20787 12.4303C4.26457 12.5671 4.34771 12.6914 4.45253 12.7959V12.7978Z" fill="white"/>
</svg>
