<svg width="24" height="24" viewBox="0 0 24 24" fill="none" xmlns="http://www.w3.org/2000/svg">
<path d="M13.5459 12.7959L6.04593 20.2959C5.94128 20.4006 5.81705 20.4836 5.68032 20.5402C5.54359 20.5969 5.39705 20.626 5.24905 20.626C5.10106 20.626 4.95451 20.5969 4.81779 20.5402C4.68106 20.4836 4.55682 20.4006 4.45218 20.2959C4.34753 20.1913 4.26452 20.0671 4.20789 19.9303C4.15125 19.7936 4.1221 19.6471 4.1221 19.4991C4.1221 19.3511 4.15125 19.2045 4.20789 19.0678C4.26452 18.9311 4.34753 18.8068 4.45218 18.7022L11.1562 12L4.45405 5.29594C4.24271 5.0846 4.12398 4.79795 4.12398 4.49907C4.12398 4.20018 4.24271 3.91354 4.45405 3.70219C4.6654 3.49085 4.95204 3.37212 5.25093 3.37212C5.54981 3.37212 5.83646 3.49085 6.0478 3.70219L13.5478 11.2022C13.6526 11.3068 13.7356 11.4311 13.7923 11.5679C13.8489 11.7047 13.8779 11.8514 13.8778 11.9995C13.8776 12.1475 13.8482 12.2941 13.7912 12.4308C13.7343 12.5675 13.6509 12.6916 13.5459 12.7959ZM21.0459 11.2022L13.5459 3.70219C13.4413 3.59755 13.317 3.51453 13.1803 3.4579C13.0436 3.40127 12.897 3.37212 12.7491 3.37212C12.6011 3.37212 12.4545 3.40127 12.3178 3.4579C12.1811 3.51453 12.0568 3.59755 11.9522 3.70219C11.8475 3.80684 11.7645 3.93107 11.7079 4.0678C11.6513 4.20453 11.6221 4.35107 11.6221 4.49907C11.6221 4.64706 11.6513 4.79361 11.7079 4.93033C11.7645 5.06706 11.8475 5.1913 11.9522 5.29594L18.6562 12L11.9512 18.7041C11.7399 18.9154 11.6212 19.2021 11.6212 19.5009C11.6212 19.7998 11.7399 20.0865 11.9512 20.2978C12.1626 20.5092 12.4492 20.6279 12.7481 20.6279C13.047 20.6279 13.3336 20.5092 13.545 20.2978L21.045 12.7978C21.1499 12.6934 21.2332 12.5692 21.2901 12.4325C21.3469 12.2958 21.3763 12.1492 21.3763 12.0011C21.3764 11.8531 21.3473 11.7064 21.2906 11.5697C21.2339 11.4329 21.1507 11.3086 21.0459 11.2041V11.2022Z" fill="white"/>
</svg>
