<svg width="23" height="20" viewBox="0 0 23 20" fill="none" xmlns="http://www.w3.org/2000/svg">
<path d="M22.3521 17.8153C20.9238 15.5594 18.6936 13.8017 16.0205 12.825C17.3498 11.9278 18.3318 10.6768 18.8272 9.24944C19.3227 7.82205 19.3065 6.29055 18.7811 4.87188C18.2556 3.4532 17.2475 2.21928 15.8995 1.3449C14.5515 0.470516 12.9319 0 11.2703 0C9.60865 0 7.98913 0.470516 6.64113 1.3449C5.29313 2.21928 4.285 3.4532 3.75955 4.87188C3.23409 6.29055 3.21794 7.82205 3.71339 9.24944C4.20884 10.6768 5.19076 11.9278 6.52008 12.825C3.84696 13.8017 1.61678 15.5594 0.18854 17.8153C0.100041 17.9434 0.0410568 18.0861 0.0150941 18.2351C-0.0108686 18.3841 -0.00328005 18.5363 0.0374087 18.6826C0.0780975 18.8289 0.151056 18.9663 0.251946 19.0868C0.352837 19.2072 0.4796 19.3081 0.624699 19.3835C0.769799 19.459 0.930273 19.5074 1.09658 19.5259C1.26289 19.5444 1.43164 19.5327 1.59279 19.4913C1.75395 19.45 1.90422 19.3799 2.03467 19.2852C2.16513 19.1906 2.2731 19.0733 2.35218 18.9403C4.23977 16.0041 7.57326 14.2528 11.2703 14.2528C14.9673 14.2528 18.3008 16.005 20.1884 18.9403C20.3598 19.1883 20.6316 19.3666 20.9464 19.4375C21.2612 19.5084 21.5943 19.4664 21.8753 19.3203C22.1563 19.1742 22.3631 18.9355 22.4521 18.6546C22.5411 18.3738 22.5052 18.0728 22.3521 17.8153ZM5.85338 7.12781C5.85338 6.16363 6.17108 5.2211 6.7663 4.41941C7.36152 3.61772 8.20753 2.99288 9.19734 2.6239C10.1871 2.25492 11.2763 2.15838 12.3271 2.34648C13.3779 2.53459 14.3431 2.99889 15.1006 3.68067C15.8582 4.36245 16.3741 5.23109 16.5831 6.17675C16.7921 7.1224 16.6849 8.1026 16.2749 8.99339C15.8649 9.88418 15.1706 10.6456 14.2798 11.1812C13.389 11.7169 12.3417 12.0028 11.2703 12.0028C9.83415 12.0013 8.4573 11.4872 7.44179 10.5733C6.42628 9.6594 5.85504 8.42029 5.85338 7.12781Z" fill="white"/>
</svg>
