<svg width="56" height="52" viewBox="0 0 56 52" fill="none" xmlns="http://www.w3.org/2000/svg">
<ellipse cx="28" cy="26" rx="28" ry="26" fill="white"/>
<path d="M46.4934 44.0938C43.7568 39.3626 39.5395 35.9701 34.6179 34.3619C37.0523 32.9126 38.9438 30.7043 40.0017 28.076C41.0596 25.4478 41.2255 22.5449 40.474 19.8132C39.7224 17.0815 38.095 14.6721 35.8415 12.9548C33.588 11.2376 30.8332 10.3076 28 10.3076C25.1668 10.3076 22.4119 11.2376 20.1585 12.9548C17.905 14.6721 16.2775 17.0815 15.526 19.8132C14.7744 22.5449 14.9403 25.4478 15.9983 28.076C17.0562 30.7043 18.9476 32.9126 21.3821 34.3619C16.4604 35.9683 12.2432 39.3608 9.50653 44.0938C9.40617 44.2574 9.33961 44.4395 9.31076 44.6293C9.28191 44.819 9.29137 45.0127 9.33857 45.1987C9.38577 45.3848 9.46976 45.5595 9.58558 45.7126C9.7014 45.8657 9.84671 45.994 10.0129 46.09C10.1792 46.1861 10.3629 46.2478 10.5534 46.2716C10.7439 46.2955 10.9372 46.2809 11.122 46.2289C11.3067 46.1768 11.4792 46.0882 11.6292 45.9684C11.7791 45.8486 11.9036 45.6999 11.9952 45.5312C15.3805 39.6806 21.3641 36.1875 28 36.1875C34.6358 36.1875 40.6194 39.6806 44.0047 45.5312C44.0963 45.6999 44.2208 45.8486 44.3708 45.9684C44.5208 46.0882 44.6932 46.1768 44.878 46.2289C45.0627 46.2809 45.2561 46.2955 45.4465 46.2716C45.637 46.2478 45.8208 46.1861 45.987 46.09C46.1532 45.994 46.2985 45.8657 46.4144 45.7126C46.5302 45.5595 46.6142 45.3848 46.6614 45.1987C46.7086 45.0127 46.718 44.819 46.6892 44.6293C46.6603 44.4395 46.5938 44.2574 46.4934 44.0938ZM17.9375 23.25C17.9375 21.2598 18.5276 19.3143 19.6333 17.6596C20.739 16.0048 22.3105 14.7151 24.1492 13.9535C25.9879 13.1919 28.0111 12.9926 29.9631 13.3808C31.915 13.7691 33.708 14.7275 35.1152 16.1347C36.5225 17.542 37.4809 19.335 37.8691 21.2869C38.2574 23.2388 38.0581 25.2621 37.2965 27.1008C36.5349 28.9394 35.2452 30.511 33.5904 31.6167C31.9356 32.7223 29.9901 33.3125 28 33.3125C25.3321 33.3096 22.7743 32.2486 20.8879 30.3621C19.0014 28.4756 17.9403 25.9179 17.9375 23.25Z" fill="#C9C9C9"/>
</svg>
